<?xml version="1.0" encoding="UTF-8" standalone="no"?>
<!DOCTYPE svg PUBLIC "-//W3C//DTD SVG 1.1//EN" "http://www.w3.org/Graphics/SVG/1.1/DTD/svg11.dtd">
<svg width="100%" height="100%" viewBox="0 0 400 150" version="1.1" xmlns="http://www.w3.org/2000/svg" xmlns:xlink="http://www.w3.org/1999/xlink" xml:space="preserve" xmlns:serif="http://www.serif.com/" style="fill-rule:evenodd;clip-rule:evenodd;stroke-linejoin:round;stroke-miterlimit:2;">
    <g transform="matrix(1.03708,0,0,1.14619,-5.70111,-9.59809)">
        <path d="M199.432,24.833C190.786,26.156 183.016,28.651 173.047,33.302C170.771,34.359 168.786,35.229 168.635,35.229C168.484,35.229 162.74,37.995 155.87,41.375C149,44.75 140.969,48.557 138.026,49.823L132.672,52.125L114.365,52.141C97.833,52.151 84.271,52.896 78.495,54.109C66.083,56.724 56.047,59.755 48.734,63.099C47.807,63.526 45.724,64.391 44.109,65.026C36.734,67.922 20.224,76.922 18.526,78.974C16.609,81.281 23.427,89.568 29.042,91.74C32.88,93.229 33.786,94.49 33.797,98.38C33.807,102.188 33.042,102.615 25.411,103.031C8.875,103.927 24.677,108.448 44.385,108.458C53.094,108.469 53.104,108.458 51.286,103.589C47.88,94.49 50.526,82.01 57.276,75.37C60.943,71.76 61.422,70.776 60.063,69.646C59.474,69.156 58.885,69.156 57.672,69.656C56.781,70.021 55.297,70.625 54.37,71.005C49.969,72.807 32.859,77.995 25.708,79.698C19.906,81.073 22.99,79.109 30.146,76.865C46.37,71.781 58.896,67.297 59.057,66.521C59.375,65 56.25,65.859 36.786,72.656C30.375,74.896 30.427,74.885 30.427,74.099C30.427,73.792 30.661,73.536 30.953,73.536C31.24,73.536 34.094,72.307 37.286,70.802C46.214,66.604 47.052,66.245 52.292,64.411C80.297,54.62 108.531,52.568 155.771,56.885C165.927,57.813 231.859,58.328 233.214,57.495C233.578,57.271 236.839,56.865 240.453,56.599C244.073,56.328 249.573,55.854 252.667,55.547C255.766,55.234 259.948,54.844 261.964,54.682C263.979,54.516 268.036,54.125 270.979,53.818C293.734,51.427 317.714,51.438 334.354,53.844C339.047,54.526 350.339,56.615 351.536,57.026C354.5,58.036 342.49,59.24 324.51,59.734C307.323,60.208 299.359,62.151 290.589,68.01C287.526,70.057 285.609,71.906 287.365,71.12C305.984,62.781 318.198,62.417 330.411,69.849L333.229,71.563L350.359,71.729C368.391,71.901 369.26,71.792 367.766,69.484C367.276,68.729 366.781,66.12 366.583,63.245C366.188,57.552 365.448,55.677 363.089,54.375C360.146,52.76 360.854,51.615 366.594,48.708C378.042,42.917 377.745,41.464 365.62,44.026C363.609,44.448 359.932,45.193 357.453,45.682C354.974,46.167 349.708,47.307 345.75,48.219C337.438,50.135 336.125,50.208 333.156,48.953C328.578,47.01 306.891,39.448 298.865,37C278.438,30.76 262.661,27.547 237.74,24.536C231.063,23.734 205.344,23.932 199.432,24.833M236.615,34.693C249.458,36.286 248.854,35.583 245.26,44.661C241.755,53.516 242.307,53.057 234.76,53.417C187.984,55.63 188.016,55.63 177.464,54.964C166.323,54.26 156.094,52.953 155.26,52.12C154.958,51.823 156.786,50.661 159.771,49.271C180.333,39.646 188.766,36.651 199.995,34.964C205.969,34.068 230.12,33.891 236.615,34.693M363.932,60.276C363.932,61.068 363.469,61.917 362.854,62.245C361.667,62.88 344.776,64.557 344.026,64.109C343.109,63.568 344.615,62.797 347.635,62.276C352.531,61.422 361.281,59.474 361.589,59.167C362.458,58.297 363.932,59 363.932,60.276M110.609,65.438C108.078,68.484 106.13,71.172 106.276,71.411C106.422,71.651 112.495,71.849 119.766,71.849L132.984,71.849L133.49,70.521C134.104,68.896 136.323,68.661 158.307,67.865C166.516,67.573 178.432,67.073 184.786,66.76C200.307,65.99 218.766,65.203 232.104,64.74C257.49,63.859 244.161,63.214 202.813,63.328C192.089,63.354 186.052,63.182 186.755,62.859C187.375,62.578 188.974,62.333 190.313,62.307C191.646,62.286 192.604,62.052 192.443,61.792C192.281,61.526 181.932,61.151 169.453,60.948C156.969,60.745 139.661,60.427 130.984,60.24L115.208,59.896L110.609,65.438M101.974,61.25C96.573,61.917 96.682,61.833 89.016,71.198C81.578,80.281 81.469,80.318 79.411,74.661C78.568,72.339 77.396,69.172 76.807,67.62L75.74,64.807L61.693,64.807L61.839,66.141C61.917,66.87 62.339,68.266 62.771,69.24C63.781,71.495 68.88,84.75 70.203,88.552L71.214,91.464L67.859,95.313C66.016,97.432 63.849,99.927 63.036,100.854C62.229,101.786 59.688,104.703 57.396,107.339C50.12,115.682 47.328,119.031 47.328,119.385C47.328,119.578 50.313,119.734 53.964,119.734L60.604,119.734L62.443,117.339C66.745,111.74 74.615,102.818 75.104,102.984C75.396,103.078 76.01,104.167 76.464,105.391C76.922,106.615 78.052,109.646 78.984,112.125C79.911,114.604 80.932,117.328 81.25,118.182L81.828,119.734L88.521,119.734C96.635,119.734 96.354,120.661 91.917,108.656C90.099,103.75 87.901,97.677 87.021,95.161L85.427,90.589L87.078,88.63C88.99,86.359 95.411,79.083 100.906,72.974C108.167,64.885 110.984,61.563 110.984,61.073C110.984,60.479 107.672,60.542 101.974,61.25M79.229,66.094C78.932,66.578 81.229,73.828 81.885,74.484C83.057,75.656 84.13,73 83.453,70.604C82.208,66.214 80.365,64.255 79.229,66.094M103.573,73.677C102.776,74.323 96.703,81.073 90.839,87.839C88.495,90.547 87.719,93.281 88.901,94.693C89.146,94.984 89.672,96.24 90.068,97.479C90.995,100.391 93.13,106.214 94.51,109.594C94.823,110.365 95.411,112.141 95.813,113.536C96.214,114.927 96.719,116.323 96.938,116.635C97.156,116.943 97.51,118.016 97.724,119.016C97.938,120.021 98.156,121.036 98.214,121.271C98.266,121.51 95.266,121.828 91.547,121.984C85.26,122.245 84.792,122.344 84.792,123.396C84.792,124.693 100.885,126.115 102.078,124.922C102.604,124.396 100.422,116.953 98.328,112.125C97.927,111.198 97.286,109.547 96.911,108.464C96.531,107.38 96.026,105.984 95.781,105.365C95.542,104.745 95.01,103.099 94.609,101.703C94.208,100.313 93.719,98.917 93.521,98.604C93.323,98.297 92.823,96.969 92.406,95.656L91.656,93.266L94.995,89.458C103.042,80.281 103.875,79.042 104.438,75.37C104.839,72.719 104.813,72.672 103.573,73.677M107.438,74.911C106.911,75.438 106.479,76.396 106.479,77.036C106.479,77.677 104.813,84.917 102.771,93.13C99.792,105.13 99.214,108.161 99.818,108.563C100.245,108.854 108.016,108.906 118.026,108.693C140.911,108.198 142.578,107.521 145.057,97.76C145.568,95.745 146.219,93.214 146.5,92.125C146.786,91.042 147.276,89.141 147.589,87.901C149.24,81.396 148.021,77.115 144.047,75.479C140.422,73.984 108.854,73.495 107.438,74.911M162.568,74.625C158.13,74.99 158.688,74.214 156.667,82.833C156.089,85.313 154.411,91.995 152.948,97.688C150.057,108.901 150.078,109.38 153.448,108.76C154.339,108.599 162.115,108.464 170.729,108.464L186.396,108.464L187.078,105.417C188.203,100.375 188.677,100.578 175.792,100.578L164.505,100.578L164.505,99.208C164.505,98.453 164.75,97.182 165.052,96.391L165.604,94.943L176.25,94.943C188.042,94.943 187.76,95.031 188.635,91.135C189.396,87.76 189.12,87.667 177.708,87.495C166.536,87.323 166.396,87.271 167.901,83.63L168.583,81.99L191.974,81.99L192.563,80.438C194.094,76.401 193.958,74.839 192.047,74.453C189.953,74.036 168.177,74.156 162.568,74.625M200.292,74.563C198.781,74.911 198.536,75.292 197.875,78.266C196.958,82.396 196.698,82.203 203.365,82.24C210.339,82.276 210.276,82.198 208.63,88.75C203.156,110.521 203.073,109.151 209.854,108.755C212.333,108.609 214.646,108.49 214.99,108.479C215.62,108.464 216.229,106.536 217.5,100.578C217.865,98.875 218.365,96.844 218.609,96.073C219.167,94.328 221.292,85.495 221.526,83.958C221.682,82.927 222.24,82.807 228.161,82.552C235.443,82.234 235.505,82.193 236.271,77.057L236.625,74.661L222.115,74.661C214.13,74.656 206.333,74.547 204.786,74.411C203.234,74.281 201.214,74.349 200.292,74.563M331.958,74.568C331.568,74.818 330.891,76.396 330.453,78.078C329.245,82.734 329.339,82.776 339.422,82.349C347.844,81.99 350.729,82.391 348.719,83.641C347.052,84.682 337.245,91.375 330.656,95.964C326.365,98.953 323.839,101.089 323.661,101.88C322.661,106.286 322.411,107.885 322.688,108.156C322.854,108.323 331.552,108.464 342.016,108.464L361.036,108.464L361.719,105.417C362.839,100.391 363.26,100.578 350.88,100.578C342.995,100.578 340.214,100.411 340.667,99.958C341.208,99.417 347.141,95.156 362.604,84.214C366.703,81.313 367.875,79.318 367.875,75.26C367.875,74.042 333.823,73.385 331.958,74.568M257.339,76.214C256.536,77.063 253.057,81.313 249.609,85.651C246.161,89.984 243.026,93.917 242.641,94.38C237.672,100.391 232.104,107.563 232.104,107.958C232.104,108.24 234.745,108.464 237.969,108.464L243.833,108.464L246.193,105.646L248.547,102.833L257.198,102.833C266.578,102.833 267.599,103.193 267.599,106.505C267.599,108.615 268.682,109.026 274.208,109.026C280.797,109.026 280.703,109.24 278.057,100.125C276.917,96.193 275.5,91.198 274.911,89.031C274.328,86.859 273.198,83.063 272.411,80.583C271.625,78.109 270.979,75.766 270.979,75.375C270.979,73.719 258.99,74.453 257.339,76.214M292.755,75.651C292.292,77.359 285.813,104.333 285.292,106.719C284.818,108.891 285.661,109.01 301.432,109.021C318.349,109.031 317.719,109.188 318.828,104.615C319.807,100.568 319.948,100.625 308.708,100.453L298.865,100.297L299,98.885C299.193,96.953 301.318,87.568 302.573,83.115C303.141,81.099 303.776,78.375 303.984,77.057L304.359,74.661L298.693,74.661C293.771,74.661 292.99,74.792 292.755,75.651M135.151,83.474C137.651,85.224 134.979,97.453 131.656,99.474C128.974,101.109 113.24,101.156 113.24,99.526C113.24,98.552 115.682,87.198 116.328,85.151C116.49,84.651 116.74,83.859 116.88,83.396C117.292,82.094 133.276,82.161 135.151,83.474M262.823,86.917C263,87.771 263.385,89.38 263.682,90.5C263.974,91.625 264.219,93.208 264.219,94.021L264.219,95.505L259.427,95.505C253.557,95.505 253.536,95.411 258.083,89.693C261.88,84.927 262.359,84.646 262.823,86.917M71.13,110.578C68.63,113.458 65.734,116.859 62.484,120.719C61.51,121.875 60.938,121.984 55.781,121.984C50.859,121.984 49.995,122.13 48.995,123.135C47.083,125.042 48.141,125.365 56.302,125.365L64.089,125.365L69.531,118.839C76.495,110.5 76.438,110.594 75.615,108.786C74.693,106.76 74.307,106.917 71.13,110.578" style="fill:white;"/>
    </g>
</svg>
